<svg width="33" height="32" viewBox="0 0 33 32" fill="none" xmlns="http://www.w3.org/2000/svg">
<path d="M25.5 13C25.5 10.6131 24.5518 8.32387 22.864 6.63604C21.1761 4.94821 18.8869 4 16.5 4C14.1131 4 11.8239 4.94821 10.136 6.63604C8.44821 8.32387 7.5 10.6131 7.5 13C7.5 16.692 10.454 21.504 16.5 27.268C22.546 21.504 25.5 16.692 25.5 13ZM16.5 30C9.166 23.334 5.5 17.666 5.5 13C5.5 10.0826 6.65893 7.28473 8.72183 5.22183C10.7847 3.15893 13.5826 2 16.5 2C19.4174 2 22.2153 3.15893 24.2782 5.22183C26.3411 7.28473 27.5 10.0826 27.5 13C27.5 17.666 23.834 23.334 16.5 30Z" fill="#72CDF4"/>
<path d="M16.5 16C17.2956 16 18.0587 15.6839 18.6213 15.1213C19.1839 14.5587 19.5 13.7956 19.5 13C19.5 12.2044 19.1839 11.4413 18.6213 10.8787C18.0587 10.3161 17.2956 10 16.5 10C15.7044 10 14.9413 10.3161 14.3787 10.8787C13.8161 11.4413 13.5 12.2044 13.5 13C13.5 13.7956 13.8161 14.5587 14.3787 15.1213C14.9413 15.6839 15.7044 16 16.5 16ZM16.5 18C15.1739 18 13.9021 17.4732 12.9645 16.5355C12.0268 15.5979 11.5 14.3261 11.5 13C11.5 11.6739 12.0268 10.4021 12.9645 9.46447C13.9021 8.52678 15.1739 8 16.5 8C17.8261 8 19.0979 8.52678 20.0355 9.46447C20.9732 10.4021 21.5 11.6739 21.5 13C21.5 14.3261 20.9732 15.5979 20.0355 16.5355C19.0979 17.4732 17.8261 18 16.5 18Z" fill="#72CDF4"/>
</svg>
