<svg width="51" height="50" viewBox="0 0 51 50" fill="none" xmlns="http://www.w3.org/2000/svg">
<path d="M15.0835 25.0001H35.9168M15.0835 16.6667H27.5835" stroke="#72CDF4" stroke-width="4.5" stroke-linecap="round" stroke-linejoin="round"/>
<path d="M6.75 42.2708V10.4167C6.75 9.3116 7.18899 8.25179 7.97039 7.47039C8.75179 6.68899 9.8116 6.25 10.9167 6.25H40.0833C41.1884 6.25 42.2482 6.68899 43.0296 7.47039C43.811 8.25179 44.25 9.3116 44.25 10.4167V31.25C44.25 32.3551 43.811 33.4149 43.0296 34.1963C42.2482 34.9777 41.1884 35.4167 40.0833 35.4167H17.0854C16.4609 35.4167 15.8444 35.5572 15.2815 35.8277C14.7186 36.0981 14.2237 36.4917 13.8333 36.9792L8.97708 43.05C8.81547 43.2525 8.59491 43.3999 8.34592 43.4716C8.09692 43.5433 7.83179 43.5358 7.58721 43.4503C7.34263 43.3647 7.13068 43.2052 6.9807 42.9939C6.83071 42.7826 6.75009 42.53 6.75 42.2708Z" stroke="#72CDF4" stroke-width="4.5"/>
</svg>
