<svg width="27" height="27" viewBox="0 0 27 27" fill="none" xmlns="http://www.w3.org/2000/svg">
<path d="M23.4998 26.5H23.3298C3.67976 25.37 0.889759 8.79 0.499759 3.73C0.468334 3.33658 0.514848 2.94082 0.636634 2.56541C0.75842 2.19 0.953086 1.8423 1.20948 1.54225C1.46587 1.2422 1.77894 0.995688 2.13077 0.816839C2.48259 0.637991 2.86625 0.530322 3.25976 0.500001H8.76976C9.17032 0.499613 9.56176 0.619511 9.89339 0.844163C10.225 1.06881 10.4816 1.38787 10.6298 1.76L12.1498 5.5C12.2961 5.86355 12.3324 6.26208 12.2542 6.64609C12.176 7.0301 11.9867 7.38267 11.7098 7.66L9.57976 9.81C9.91248 11.7007 10.8179 13.4437 12.1737 14.803C13.5294 16.1622 15.2699 17.0723 17.1598 17.41L19.3298 15.26C19.6113 14.9862 19.9671 14.8013 20.353 14.7283C20.7389 14.6554 21.1378 14.6977 21.4998 14.85L25.2698 16.36C25.6363 16.5129 25.949 16.7714 26.168 17.1027C26.3871 17.4339 26.5026 17.8229 26.4998 18.22V23.5C26.4998 24.2956 26.1837 25.0587 25.6211 25.6213C25.0585 26.1839 24.2954 26.5 23.4998 26.5ZM3.49976 2.5C3.23454 2.5 2.98019 2.60536 2.79265 2.79289C2.60512 2.98043 2.49976 3.23478 2.49976 3.5V3.58C2.95976 9.5 5.90976 23.5 23.4398 24.5C23.5711 24.5081 23.7028 24.4902 23.8273 24.4473C23.9517 24.4045 24.0665 24.3374 24.1649 24.2501C24.2634 24.1628 24.3437 24.0568 24.4011 23.9384C24.4586 23.82 24.4921 23.6914 24.4998 23.56V18.22L20.7298 16.71L17.8598 19.56L17.3798 19.5C8.67976 18.41 7.49976 9.71 7.49976 9.62L7.43976 9.14L10.2798 6.27L8.77976 2.5H3.49976Z" fill="#72CDF4"/>
</svg>
