<svg width="41" height="42" viewBox="0 0 41 42" fill="none" xmlns="http://www.w3.org/2000/svg">
<path d="M38.8339 12.2422C41.0021 16.777 41.4137 21.9542 39.9893 26.7746C38.5648 31.595 35.4053 35.7169 31.1205 38.3447C26.8357 40.9726 21.7293 41.9202 16.787 41.0045C11.8446 40.0889 7.4166 37.3749 4.35756 33.3865C1.29852 29.3981 -0.174707 24.4179 0.222219 19.4071C0.619144 14.3964 2.85808 9.71024 6.50692 6.25317C10.1557 2.7961 14.9558 0.813165 19.9807 0.687069C25.0056 0.560972 29.8991 2.30065 33.7167 5.57036L38.1444 1.14067C38.4376 0.847481 38.8353 0.68277 39.2499 0.68277C39.6645 0.68277 40.0622 0.847481 40.3554 1.14067C40.6486 1.43386 40.8133 1.83151 40.8133 2.24614C40.8133 2.66077 40.6486 3.05842 40.3554 3.35161L21.6054 22.1016C21.3122 22.3948 20.9145 22.5595 20.4999 22.5595C20.0853 22.5595 19.6876 22.3948 19.3944 22.1016C19.1012 21.8084 18.9365 21.4108 18.9365 20.9961C18.9365 20.5815 19.1012 20.1839 19.3944 19.8907L24.8085 14.4766C23.3412 13.5062 21.5894 13.0594 19.8366 13.2085C18.0837 13.3577 16.4326 14.094 15.1503 15.2983C13.8681 16.5027 13.0298 18.1045 12.7712 19.8445C12.5126 21.5846 12.8489 23.3609 13.7255 24.8861C14.6021 26.4113 15.9679 27.5959 17.6016 28.2483C19.2353 28.9007 21.0413 28.9826 22.7274 28.4808C24.4134 27.979 25.8808 26.9229 26.8919 25.4833C27.903 24.0438 28.3987 22.3052 28.2987 20.5489C28.2872 20.3437 28.3162 20.1382 28.384 19.9442C28.4519 19.7502 28.5573 19.5715 28.6942 19.4183C28.8312 19.265 28.9969 19.1402 29.1821 19.051C29.3672 18.9619 29.5681 18.91 29.7733 18.8985C30.1877 18.8752 30.5944 19.0174 30.9039 19.294C31.0572 19.4309 31.182 19.5967 31.2712 19.7818C31.3603 19.967 31.4122 20.1679 31.4237 20.3731C31.5662 22.859 30.8562 25.3191 29.411 27.3468C27.9659 29.3745 25.8721 30.8484 23.4758 31.5249C21.0795 32.2014 18.5241 32.04 16.2319 31.0674C13.9397 30.0948 12.048 28.3692 10.8695 26.1759C9.69088 23.9825 9.29598 21.4526 9.75002 19.0044C10.2041 16.5562 11.4799 14.3361 13.3666 12.7112C15.2533 11.0863 17.6379 10.1538 20.1264 10.0678C22.6149 9.98185 25.0583 10.7475 27.0526 12.2383L31.496 7.79496C28.2397 5.09144 24.0994 3.6863 19.8703 3.84941C15.6412 4.01252 11.6214 5.73239 8.58308 8.67869C5.54474 11.625 3.70206 15.59 3.40897 19.8121C3.11587 24.0342 4.39303 28.2157 6.99513 31.5536C9.59724 34.8914 13.3408 37.1502 17.5068 37.8961C21.6729 38.642 25.9676 37.8224 29.5662 35.5947C33.1647 33.3671 35.8134 29.8884 37.0034 25.8269C38.1934 21.7653 37.8409 17.4073 36.0136 13.5899C35.8349 13.2159 35.812 12.7862 35.9501 12.3954C36.0882 12.0046 36.3759 11.6846 36.7499 11.5059C37.1239 11.3272 37.5536 11.3044 37.9444 11.4425C38.3352 11.5805 38.6552 11.8682 38.8339 12.2422Z" fill="#72CDF4"/>
</svg>
