<svg width="27" height="27" viewBox="0 0 27 27" fill="none" xmlns="http://www.w3.org/2000/svg">
<path d="M22.9001 4.04658C21.6777 2.81182 20.2216 1.83281 18.6169 1.16665C17.0122 0.500496 15.2909 0.16053 13.5534 0.166583C6.2734 0.166583 0.340065 6.09992 0.340065 13.3799C0.340065 15.7132 0.953399 17.9799 2.10007 19.9799L0.233398 26.8333L7.2334 24.9933C9.16673 26.0466 11.3401 26.6066 13.5534 26.6066C20.8334 26.6066 26.7667 20.6733 26.7667 13.3932C26.7667 9.85992 25.3934 6.53992 22.9001 4.04658ZM13.5534 24.3666C11.5801 24.3666 9.64673 23.8333 7.9534 22.8333L7.5534 22.5933L3.3934 23.6866L4.50006 19.6333L4.2334 19.2199C3.13706 17.4692 2.55492 15.4456 2.5534 13.3799C2.5534 7.32658 7.48673 2.39325 13.5401 2.39325C16.4734 2.39325 19.2334 3.53992 21.3001 5.61992C22.3234 6.63854 23.1343 7.85013 23.6859 9.18448C24.2375 10.5188 24.5188 11.9494 24.5134 13.3932C24.5401 19.4466 19.6067 24.3666 13.5534 24.3666ZM19.5801 16.1532C19.2467 15.9932 17.6201 15.1933 17.3267 15.0732C17.0201 14.9666 16.8067 14.9132 16.5801 15.2332C16.3534 15.5666 15.7267 16.3132 15.5401 16.5266C15.3534 16.7533 15.1534 16.7799 14.8201 16.6066C14.4867 16.4466 13.4201 16.0866 12.1667 14.9666C11.1801 14.0866 10.5267 13.0066 10.3267 12.6733C10.1401 12.3399 10.3001 12.1666 10.4734 11.9932C10.6201 11.8466 10.8067 11.6066 10.9667 11.4199C11.1267 11.2332 11.1934 11.0866 11.3001 10.8732C11.4067 10.6466 11.3534 10.4599 11.2734 10.2999C11.1934 10.1399 10.5267 8.51325 10.2601 7.84658C9.9934 7.20658 9.7134 7.28658 9.5134 7.27325H8.8734C8.64673 7.27325 8.30006 7.35325 7.9934 7.68658C7.70006 8.01992 6.84673 8.81992 6.84673 10.4466C6.84673 12.0733 8.0334 13.6466 8.1934 13.8599C8.3534 14.0866 10.5267 17.4199 13.8334 18.8466C14.6201 19.1933 15.2334 19.3933 15.7134 19.5399C16.5001 19.7933 17.2201 19.7532 17.7934 19.6732C18.4334 19.5799 19.7534 18.8732 20.0201 18.0999C20.3001 17.3266 20.3001 16.6733 20.2067 16.5266C20.1134 16.3799 19.9134 16.3132 19.5801 16.1532Z" fill="#72CDF4"/>
</svg>
